<svg height="512" viewBox="0 0 56 56" width="512" xmlns="http://www.w3.org/2000/svg"><g id="Page-1" fill="none" fill-rule="evenodd"><g id="037---RAM" fill="rgb(0,0,0)" fill-rule="nonzero" transform="translate(-1 -1)"><path id="Rectangle-path" d="m11.634 36.13h6.706v9.607h-6.706z" transform="matrix(.707 -.707 .707 .707 -24.554 22.585)"/><path id="Shape" d="m18.111 31.016 6.793 6.794 4.742-4.742v-.001-.001l-6.793-6.791z"/><path id="Rectangle-path" d="m29.417 18.347h6.706v9.607h-6.706z" transform="matrix(.707 -.707 .707 .707 -6.771 29.957)"/><path id="Shape" d="m24.267 48.115 2.011 2.011 2.023-2.034-2.023-1.989z"/><path id="Rectangle-path" d="m21.44 50.114h2.837v2.853h-2.837z" transform="matrix(.707 -.707 .707 .707 -29.751 31.264)"/><path id="Shape" d="m33.7725 35.7808c.0209-.021.0487-.0285.0709-.0472l3.3094-3.3131c.016-.0186.022-.0421.04-.06s.0408-.0234.0592-.0393l3.33-3.3337c.0127-.0143.0171-.0327.0308-.0464s.0319-.0179.0461-.0306l3.3508-3.3546c.01-.0105.0128-.0245.023-.0347s.024-.0133.0345-.0229l3.3673-3.3712c.0073-.0078.01-.0182.0172-.0258s.0179-.01.0257-.0171l3.3858-3.39.0084-.0127.0126-.0083 3.4058-3.4101.0006-.0009.0009-.0006.6827-.6835-7.6109-7.5654c-1.5184331.89885352-3.4530809.65360545-4.6992-.5957-1.2389172-1.2424584-1.4988311-3.15792333-.6358-4.6856l-.7324-.7861-40.3066 40.353.7724.7256c1.51854351-.8987253 3.45320371-.6532698 4.6992.5962 1.23944414 1.2426418 1.49900854 3.1589124.6348 4.6865l7.5723 7.6246.5472-.5479c.0418573-.1027186.1233185-.1842519.226-.2262l3.2027-3.2065c.0377846-.0927804.1113567-.1664245.2041-.2043l3.2236-3.2273c.0219798-.0387951.0466747-.0759878.0739-.1113.0351605-.027024.0721488-.0515827.1107-.0735l3.2438-3.2478c.019644-.0340415.0414208-.0668068.0652-.0981.0311272-.0236465.0637263-.0452901.0976-.0648l4.6334-4.6388c.0259922-.0635607.0764393-.1140078.14-.14l3.2885-3.2922c.0192-.0225.0267-.0507.0478-.0717zm.707-23.9615 4.7412-4.7412c.3741724-.37636233.8833915-.58734561 1.4141-.5859h.0019c.5305731-.00124892 1.0395271.21013394 1.4131.5869l6.793 6.792c.3751443.3749684.5859129.8836402.5859129 1.41405s-.2107686 1.0390816-.5859129 1.41405l-4.7412 4.7417c-.7820128.7791577-2.0468118.7793813-2.8291.0005l-6.7925-6.7939c-.7802904-.7812738-.7802904-2.0469262 0-2.8282zm-12.3115 31.5542-4.7412 4.7412c-.7813878.780015-2.0468122.780015-2.8282 0l-6.7929-6.7929c-.78028121-.7814338-.78028121-2.0471662 0-2.8286l4.7412-4.7412c.7812395-.7802789 2.0468605-.7802789 2.8281 0l6.793 6.7929c.7802261.7814566.7802261 2.0471434 0 2.8286zm8.892-8.8916-4.7412 4.7417c-.7816592.7791636-2.0462654.7793872-2.8282.0005l-6.7933-6.7941c-.7802789-.7812395-.7802789-2.0468605 0-2.8281l4.7412-4.7413c.7812623-.7802238 2.0468377-.7802238 2.8281 0l6.793 6.793c.3751443.3749684.5859129.8836402.5859129 1.41405s-.2107686 1.0390816-.5859129 1.41405zm-5.4721-10.9428c-.7780933-.7818258-.7785402-2.0453241-.001-2.8277l4.7431-4.7422c.3734499-.3762183.8820026-.5872239 1.4121-.5859h.0019c.5307085-.0014456 1.0399276.2095377 1.4141.5859l6.793 6.7935c.3751443.3749684.5859129.8836402.5859129 1.41405s-.2107686 1.0390816-.5859129 1.41405l-4.7411 4.7412c-.7813878.780015-2.0468122.780015-2.8282 0z"/><path id="Shape" d="m47.429 15.285.001-.001-6.795-6.792-4.741 4.741 6.793 6.794z"/><path id="Rectangle-path" d="m18.025 53.532h2.836v2.866h-2.836z" transform="matrix(.707 -.707 .707 .707 -33.173 29.852)"/><path id="Rectangle-path" d="m46.744 24.808h2.836v2.848h-2.836z" transform="matrix(.707 -.707 .707 .707 -4.445 41.733)"/><path id="Rectangle-path" d="m39.908 31.646h2.837v2.858h-2.837z" transform="matrix(.707 -.707 .707 .707 -11.284 38.91)"/><path id="Rectangle-path" d="m50.162 21.389h2.837v2.843h-2.837z" transform="matrix(.707 -.707 .707 .707 -1.022 43.154)"/><path id="Shape" d="m52.992 19.389 2.008 2.007 2.026-2.03-2.022-1.989z"/><path id="Rectangle-path" d="m43.326 28.227h2.836v2.853h-2.836z" transform="matrix(.707 -.707 .707 .707 -7.862 40.329)"/><path id="Rectangle-path" d="m33.073 38.484h2.836v2.868h-2.836z" transform="matrix(.707 -.707 .707 .707 -18.125 36.085)"/><path id="Rectangle-path" d="m36.49 35.065h2.837v2.863h-2.837z" transform="matrix(.707 -.707 .707 .707 -14.704 37.498)"/></g></g></svg>