<?xml version="1.0" encoding="utf-8"?>
<!-- Generator: Adobe Illustrator 24.0.0, SVG Export Plug-In . SVG Version: 6.00 Build 0)  -->
<svg version="1.1" id="Layer_1" xmlns="http://www.w3.org/2000/svg" xmlns:xlink="http://www.w3.org/1999/xlink" x="0px" y="0px"
	 viewBox="0 0 700 700" style="enable-background:new 0 0 700 700;" xml:space="preserve">
<style type="text/css">
	.st0{fill:none;}
	.st1{fill:#D92027;}
	.st2{fill:#FF9234;}
	.st3{fill:#0000FF;}
	.st4{fill:none;stroke:#000000;stroke-width:25;stroke-miterlimit:10;}
</style>
<g>
	<rect x="251" y="289.6" class="st0" width="273" height="158.4"/>
</g>
<g>
	<path class="st1" d="M245.4,251.9l281.7-88.6c4.3-1.4,7.5,4,4.3,7.2L298.1,403.8c-2.3,2.3-6.1,1.4-7.1-1.7l-48.4-144.7
		C241.8,255.1,243.1,252.6,245.4,251.9z"/>
	<path class="st2" d="M453.4,454.3l-287.8,92.8c-4.3,1.4-7.6-4-4.4-7.2L401,300.1c2.3-2.3,6.2-1.3,7.2,1.7l48,147
		C456.9,451.2,455.7,453.6,453.4,454.3z"/>
</g>
<g>
	<line class="st3" x1="391" y1="675.1" x2="348" y2="677.1"/>
</g>
<path class="st4" d="M350.5,23.5"/>
<path class="st1" d="M591.9,593.5l-22.1-21.8C452,691.2,259.5,694.9,137,578.8C12.8,461.3,7.4,265.5,124.7,141.6
	c1.4-1.5,2.9-3,4.4-4.5L107,115.3C-24.8,249-23.2,464.4,110.7,596.5S460,727.2,591.9,593.5z"/>
<path class="st2" d="M112,112.1l22.1,21.7c117.6-119.7,310-123.7,432.8-7.9c124.3,117.3,130.2,313,13,437.2c-1.4,1.5-2.9,3-4.4,4.5
	l22.1,21.7c131.6-133.9,129.6-349.4-4.5-481.2S243.6-21.8,112,112.1z"/>
<path class="st2" d="M551.7,612.4l57.8-11.5c1.5-0.3,2.1-2.1,1.1-3.2l-38.9-44.3c-1-1.1-2.9-0.8-3.4,0.7l-19,55.8
	C549,611.2,550.2,612.7,551.7,612.4z"/>
<path class="st1" d="M147.3,97.8l-57.9,11.1c-1.5,0.3-2.1,2.1-1.1,3.2l38.6,44.6c1,1.2,2.9,0.8,3.4-0.6l19.3-55.7
	C150.1,98.9,148.8,97.5,147.3,97.8z"/>
<g>
</g>
<g>
</g>
<g>
</g>
<g>
</g>
<g>
</g>
<g>
</g>
<g>
</g>
<g>
</g>
<g>
</g>
<g>
</g>
<g>
</g>
<g>
</g>
<g>
</g>
<g>
</g>
<g>
</g>
</svg>
